<svg width="138" height="23" fill="none" xmlns="http://www.w3.org/2000/svg"><path fill-rule="evenodd" clip-rule="evenodd" d="M132.7 3.4v18.9H130V3.4h-4.8V1.3h12.3v2.1h-4.8zm-10.4 11.1c-.5.6-1 1-1.8 1.3-.7.2-1.5.3-2.5.3a15.3 15.3 0 01-3-.3v6.5h-2.7V1.6A14.1 14.1 0 01117 1c1.2 0 2.2.1 3 .4.9.2 1.6.6 2 1.2.6.6 1 1.4 1.2 2.3.3 1 .4 2.2.4 3.6 0 1.5-.1 2.7-.4 3.7-.2 1-.5 1.7-1 2.3zm-1.5-8.7c-.2-.7-.4-1.3-.7-1.7-.4-.4-.8-.7-1.3-.9-.4-.2-1-.3-1.7-.3H115V14h2c.8 0 1.4 0 1.8-.2.5-.2 1-.5 1.3-.9.3-.4.5-1 .7-1.7l.2-2.7c0-1 0-2-.2-2.7zm-15.3 11.1h-6l-1.3 5.4h-2.7l5-21h4l5 21H107l-1.4-5.4zm-2.9-12.6h-.1L100 14.8h5l-2.4-10.5zm-13 2.4h-.1L85 19.6h-2.7L78.1 6.7h-.2L77 22.3h-2.7l1.2-21h3.3l5 14.4 5-14.4H92l1.2 21h-2.7l-.9-15.6zM69.5 20.3c-.6.9-1.3 1.4-2 1.8-.8.3-1.7.5-2.8.5-1 0-1.9-.2-2.7-.5-.8-.4-1.4-1-2-1.8-.6-.8-1-1.9-1.3-3.3-.3-1.4-.4-3.1-.4-5.2s.1-3.8.4-5.2c.3-1.4.7-2.5 1.3-3.4.6-.8 1.2-1.4 2-1.7.8-.3 1.7-.5 2.7-.5 1 0 2 .2 2.8.5.7.3 1.4 1 2 1.7.5.9 1 2 1.3 3.4.2 1.4.4 3.1.4 5.2s-.2 3.8-.4 5.2a9.2 9.2 0 01-1.3 3.3zm-1.3-13c-.2-1.1-.5-2-.8-2.7-.4-.7-.8-1.2-1.2-1.4a2.8 2.8 0 00-2.8 0c-.5.2-1 .7-1.3 1.4-.3.7-.6 1.6-.8 2.8-.2 1.1-.3 2.6-.3 4.4 0 1.8.1 3.3.3 4.4.2 1.2.5 2.1.8 2.8.4.7.8 1.1 1.2 1.4.5.3 1 .4 1.4.4.5 0 1-.1 1.5-.4.4-.3.8-.7 1.2-1.4.3-.7.6-1.6.8-2.8.2-1.1.3-2.6.3-4.4 0-1.8-.1-3.3-.3-4.4zM52 12.8h-6.3v9.6H43v-21h2.7v9.3H52V1.3h2.7v21H52v-9.6zm-14.3 9.6l-3.7-9-3.8 9h-2.7L32 11.5 28 1.3h2.7L34 9.7l3.3-8.4H40l-4 10.2 4.4 10.8h-2.7zm-22-21h10.2v2.1h-7.5v6.9H25v2.1h-6.6v7.8h7.5v2.1H15.7v-21zm-7.2 21H5.8V3.4H1V1.3h12.3v2.1H8.5v18.9z" fill="#fff"/></svg>